<?xml version="1.0" standalone="no"?>
<!DOCTYPE svg PUBLIC "-//W3C//DTD SVG 20010904//EN"
 "http://www.w3.org/TR/2001/REC-SVG-20010904/DTD/svg10.dtd">
<svg version="1.0" xmlns="http://www.w3.org/2000/svg"
 width="1737.000000pt" height="772.000000pt" viewBox="0 0 1737.000000 772.000000"
 preserveAspectRatio="xMidYMid meet">
<metadata>
Created by potrace 1.13, written by Peter Selinger 2001-2015
</metadata>
<g transform="translate(0.000000,772.000000) scale(0.100000,-0.100000)"
fill="#000000" stroke="none">
<path d="M11075 7453 c-513 -55 -993 -247 -1384 -551 -113 -89 -146 -118 -280
-249 -58 -57 -108 -103 -112 -103 -4 0 -67 23 -140 51 -389 147 -648 194
-1079 194 -366 0 -502 -16 -785 -90 -282 -74 -608 -213 -823 -351 l-73 -47
-47 45 c-279 271 -629 515 -962 671 -359 169 -725 273 -1130 323 -170 21 -636
24 -790 6 -673 -82 -1265 -314 -1775 -698 -786 -590 -1298 -1477 -1414 -2454
-33 -274 -33 -567 0 -840 90 -746 402 -1437 894 -1979 370 -407 804 -715 1305
-923 226 -95 579 -194 790 -223 25 -3 72 -10 105 -15 33 -5 98 -12 145 -16 47
-3 101 -8 120 -11 52 -7 9903 -9 10400 -2 398 6 434 8 571 32 666 118 1200
394 1660 859 442 445 703 943 828 1573 16 83 32 179 36 215 9 109 6 609 -5
707 -48 427 -223 909 -465 1278 -436 667 -1116 1140 -1887 1310 -266 58 -424
70 -1049 74 l-135 1 -50 73 c-27 39 -85 115 -128 167 -432 518 -983 836 -1647
949 -188 32 -514 44 -694 24z"/>
</g>
</svg>
