<?xml version="1.0" standalone="no"?>
<!DOCTYPE svg PUBLIC "-//W3C//DTD SVG 20010904//EN"
 "http://www.w3.org/TR/2001/REC-SVG-20010904/DTD/svg10.dtd">
<svg version="1.0" xmlns="http://www.w3.org/2000/svg"
 width="1641.000000pt" height="1142.000000pt" viewBox="0 0 1641.000000 1142.000000"
 preserveAspectRatio="xMidYMid meet">
<metadata>
Created by potrace 1.13, written by Peter Selinger 2001-2015
</metadata>
<g transform="translate(0.000000,1142.000000) scale(0.100000,-0.100000)"
fill="#000000" stroke="none">
<path d="M8447 11214 c-1 -1 -70 -4 -153 -8 -83 -4 -162 -8 -175 -11 -13 -2
-53 -6 -89 -9 -720 -68 -1482 -315 -2120 -686 -424 -247 -714 -473 -1086 -844
-269 -270 -338 -347 -490 -551 -99 -132 -96 -128 -191 -270 -436 -653 -725
-1413 -832 -2195 -19 -139 -23 -169 -37 -325 -3 -38 -9 -73 -13 -76 -3 -4 -69
-9 -146 -13 -77 -3 -149 -8 -160 -10 -11 -2 -49 -7 -85 -11 -403 -44 -894
-224 -1258 -461 -191 -124 -318 -229 -492 -403 -176 -177 -255 -274 -389 -476
-318 -480 -492 -1062 -492 -1645 0 -96 2 -195 5 -220 3 -25 8 -76 11 -113 29
-358 179 -822 377 -1166 520 -905 1468 -1486 2473 -1516 250 -8 10723 -8
10974 0 132 4 228 12 299 26 590 114 1092 448 1418 944 242 368 357 773 349
1230 -4 243 -35 424 -110 650 -186 559 -617 1033 -1162 1279 -168 75 -403 144
-563 165 -147 18 -181 21 -367 27 -101 3 -191 7 -200 9 -10 2 -22 4 -27 4 -4
1 -6 11 -3 24 132 592 161 821 161 1287 0 222 -10 546 -19 605 -2 17 -11 84
-20 150 -135 1030 -586 2021 -1281 2810 -78 90 -353 368 -429 435 -556 493
-1171 853 -1845 1082 -218 74 -557 163 -695 183 -22 3 -46 8 -53 10 -16 6
-255 42 -327 50 -27 3 -90 9 -140 15 -120 13 -607 32 -618 24z"/>
</g>
</svg>
