<?xml version="1.0" standalone="no"?>
<!DOCTYPE svg PUBLIC "-//W3C//DTD SVG 20010904//EN"
 "http://www.w3.org/TR/2001/REC-SVG-20010904/DTD/svg10.dtd">
<svg version="1.0" xmlns="http://www.w3.org/2000/svg"
 width="1751.000000pt" height="795.000000pt" viewBox="0 0 1751.000000 795.000000"
 preserveAspectRatio="xMidYMid meet">
<metadata>
Created by potrace 1.13, written by Peter Selinger 2001-2015
</metadata>
<g transform="translate(0.000000,795.000000) scale(0.100000,-0.100000)"
fill="#000000" stroke="none">
<path d="M6895 7773 c-437 -50 -793 -152 -1145 -327 -275 -137 -514 -308 -760
-543 -35 -33 -61 -51 -70 -47 -138 53 -460 150 -565 170 -11 2 -54 10 -95 19
-102 20 -275 42 -390 51 -177 13 -485 7 -625 -11 -16 -3 -68 -9 -115 -15 -47
-6 -139 -23 -205 -36 -969 -202 -1810 -820 -2304 -1694 -218 -384 -385 -927
-417 -1355 -8 -119 -8 -482 0 -620 19 -287 107 -655 233 -970 413 -1036 1306
-1806 2393 -2064 121 -29 264 -56 352 -67 24 -3 57 -7 73 -10 104 -16 1155
-19 5915 -19 4829 1 5533 3 5680 21 249 30 539 105 763 198 81 33 296 140 342
169 10 6 57 36 104 65 241 152 516 397 686 612 166 208 336 504 440 765 74
185 131 404 170 650 20 131 14 703 -9 835 -56 317 -151 600 -296 877 -156 298
-292 477 -570 749 -387 378 -921 648 -1465 740 -16 2 -55 9 -85 14 -30 6 -98
14 -150 18 -108 8 -519 7 -571 -2 -19 -3 -61 -8 -94 -11 l-60 -6 -65 63 c-547
526 -1080 801 -1825 940 -108 20 -156 22 -480 24 -371 3 -443 -1 -630 -36
-449 -84 -783 -219 -1271 -511 l-32 -19 -63 87 c-392 547 -957 956 -1604 1163
-97 31 -264 73 -335 85 -19 3 -46 7 -60 10 -144 27 -273 37 -515 39 -137 1
-263 1 -280 -1z"/>
</g>
</svg>
