<?xml version="1.0" standalone="no"?>
<!DOCTYPE svg PUBLIC "-//W3C//DTD SVG 20010904//EN"
 "http://www.w3.org/TR/2001/REC-SVG-20010904/DTD/svg10.dtd">
<svg version="1.0" xmlns="http://www.w3.org/2000/svg"
 width="1905.000000pt" height="844.000000pt" viewBox="0 0 1905.000000 844.000000"
 preserveAspectRatio="xMidYMid meet">
<metadata>
Created by potrace 1.13, written by Peter Selinger 2001-2015
</metadata>
<g transform="translate(0.000000,844.000000) scale(0.100000,-0.100000)"
fill="#000000" stroke="none">
<path d="M12768 8215 c-2 -1 -68 -5 -148 -8 -417 -18 -884 -127 -1310 -308
-121 -51 -402 -199 -520 -274 -190 -121 -390 -274 -550 -421 -25 -22 -63 -57
-85 -77 l-41 -35 -89 67 c-109 81 -290 196 -445 281 -387 213 -852 367 -1285
425 -22 3 -53 7 -70 10 -16 2 -59 7 -95 10 -36 3 -85 8 -110 10 -155 15 -562
3 -750 -21 -1166 -149 -2195 -821 -2798 -1828 -44 -72 -107 -185 -142 -251
-34 -66 -63 -121 -64 -122 -2 -2 -43 15 -93 36 -174 76 -456 156 -673 191 -41
7 -84 15 -95 17 -41 10 -603 12 -675 2 -569 -75 -1132 -323 -1522 -671 -97
-86 -279 -274 -353 -363 -294 -353 -498 -791 -589 -1261 -124 -647 -16 -1328
304 -1906 414 -749 1156 -1282 1983 -1423 185 -31 203 -33 392 -42 148 -7
11843 -10 12800 -4 480 4 572 10 790 52 261 51 481 126 726 249 285 143 507
305 744 544 263 264 434 514 582 847 164 369 240 729 241 1144 0 116 -4 237
-8 270 -5 33 -11 83 -14 110 -26 224 -104 512 -203 745 -221 520 -617 985
-1098 1288 -133 85 -368 199 -539 262 -140 52 -397 122 -491 134 -115 15 -135
19 -135 28 0 17 -147 302 -210 408 -657 1099 -1784 1791 -3057 1875 -100 7
-301 13 -305 10z"/>
</g>
</svg>
