<?xml version="1.0" standalone="no"?>
<!DOCTYPE svg PUBLIC "-//W3C//DTD SVG 20010904//EN"
 "http://www.w3.org/TR/2001/REC-SVG-20010904/DTD/svg10.dtd">
<svg version="1.0" xmlns="http://www.w3.org/2000/svg"
 width="1705.000000pt" height="1101.000000pt" viewBox="0 0 1705.000000 1101.000000"
 preserveAspectRatio="xMidYMid meet">
<metadata>
Created by potrace 1.13, written by Peter Selinger 2001-2015
</metadata>
<g transform="translate(0.000000,1101.000000) scale(0.100000,-0.100000)"
fill="#D1E6D7" stroke="none">
<path d="M11297 10884 c-1 -1 -67 -4 -146 -8 -79 -4 -147 -8 -150 -10 -3 -2
-40 -7 -81 -10 -214 -19 -640 -103 -890 -175 -159 -47 -448 -146 -525 -181
-11 -5 -69 -30 -130 -56 -494 -210 -988 -522 -1405 -888 -128 -113 -335 -315
-430 -421 -35 -38 -79 -88 -99 -110 -163 -181 -376 -474 -546 -749 -44 -70
-85 -130 -91 -133 -7 -2 -67 28 -133 67 -235 139 -580 294 -857 385 -434 142
-858 209 -1339 209 -316 0 -565 -23 -860 -79 -297 -57 -655 -174 -978 -320
-277 -125 -654 -357 -872 -536 -176 -146 -425 -380 -545 -514 -533 -595 -910
-1375 -1040 -2155 -51 -299 -59 -414 -55 -780 2 -190 5 -356 8 -370 3 -14 8
-56 12 -95 12 -141 71 -449 116 -615 51 -188 155 -488 208 -605 197 -428 394
-748 652 -1058 167 -200 393 -425 564 -563 33 -26 62 -51 65 -54 3 -4 59 -47
125 -96 218 -162 420 -285 670 -408 394 -193 773 -316 1210 -391 44 -7 242
-33 305 -39 173 -18 729 -21 3925 -21 3452 0 3835 3 4064 30 31 3 76 8 101 11
43 4 65 7 155 20 22 3 92 14 155 25 1156 203 2214 783 3020 1655 725 784 1213
1801 1364 2839 33 227 43 323 53 495 13 232 5 749 -12 803 -2 7 -6 43 -9 80
-31 354 -145 861 -275 1224 -223 621 -495 1104 -918 1628 -120 149 -405 447
-564 591 -266 240 -543 444 -859 631 -536 317 -1123 539 -1730 654 -166 31
-261 46 -333 54 -25 2 -67 7 -93 10 -27 3 -67 7 -89 10 -111 13 -233 18 -463
19 -139 1 -253 1 -255 0z"/>
</g>
</svg>
