<?xml version="1.0" standalone="no"?>
<!DOCTYPE svg PUBLIC "-//W3C//DTD SVG 20010904//EN"
 "http://www.w3.org/TR/2001/REC-SVG-20010904/DTD/svg10.dtd">
<svg version="1.0" xmlns="http://www.w3.org/2000/svg"
 width="1625.000000pt" height="831.000000pt" viewBox="0 0 1625.000000 831.000000"
 preserveAspectRatio="xMidYMid meet">
<metadata>
Created by potrace 1.13, written by Peter Selinger 2001-2015
</metadata>
<g transform="translate(0.000000,831.000000) scale(0.100000,-0.100000)"
fill="#D1E6D7" stroke="none">
<path d="M9150 8137 c-3 -2 -48 -7 -100 -11 -393 -28 -840 -154 -1212 -343
-116 -59 -356 -197 -368 -212 -3 -4 -18 -15 -35 -25 -235 -147 -601 -502 -802
-776 -125 -171 -223 -331 -313 -510 -48 -96 -170 -392 -170 -413 0 -7 -4 -18
-9 -26 -7 -10 -24 -4 -82 31 -237 144 -536 247 -819 282 -148 18 -422 14 -550
-8 -52 -9 -105 -19 -116 -21 -55 -9 -222 -59 -305 -90 -369 -141 -689 -391
-946 -741 l-52 -71 -83 14 c-186 29 -248 35 -407 38 -148 2 -380 -16 -506 -39
-428 -78 -831 -270 -1175 -560 -73 -62 -268 -264 -330 -341 -163 -206 -327
-499 -405 -724 -35 -103 -83 -283 -104 -391 -6 -30 -14 -68 -17 -85 -4 -16 -9
-167 -10 -335 -3 -321 4 -410 46 -588 73 -309 190 -578 365 -842 353 -534 893
-904 1535 -1054 177 -41 241 -46 645 -52 531 -7 10061 -7 10552 1 325 4 412 9
505 25 384 66 778 236 1083 466 287 216 557 535 720 849 147 283 232 566 270
905 12 108 13 446 1 515 -2 17 -10 68 -16 115 -23 174 -83 392 -157 575 -124
306 -307 579 -553 825 -212 212 -418 358 -682 484 -300 143 -562 216 -888 245
-102 9 -372 7 -455 -4 -118 -15 -247 -37 -349 -60 -60 -14 -116 -25 -126 -25
-13 0 -19 17 -29 83 -96 637 -365 1233 -775 1712 -79 93 -294 308 -376 376
-36 30 -67 56 -70 59 -3 3 -41 32 -85 66 -218 165 -468 310 -715 413 -69 29
-134 56 -145 61 -148 63 -554 163 -760 186 -22 3 -56 7 -75 10 -46 7 -544 16
-550 11z"/>
</g>
</svg>
