<?xml version="1.0" standalone="no"?>
<!DOCTYPE svg PUBLIC "-//W3C//DTD SVG 20010904//EN"
 "http://www.w3.org/TR/2001/REC-SVG-20010904/DTD/svg10.dtd">
<svg version="1.0" xmlns="http://www.w3.org/2000/svg"
 width="721.000000pt" height="721.000000pt" viewBox="0 0 721.000000 721.000000"
 preserveAspectRatio="xMidYMid meet">
<metadata>
Created by potrace 1.13, written by Peter Selinger 2001-2015
</metadata>
<g transform="translate(0.000000,721.000000) scale(0.100000,-0.100000)"
fill="#FFFFFF" stroke="none">
<path d="M0 3605 l0 -3605 3605 0 3605 0 0 3605 0 3605 -3605 0 -3605 0 0
-3605z m4113 2436 c315 -56 557 -140 817 -284 462 -254 828 -707 972 -1202 61
-209 73 -313 73 -610 -1 -289 -9 -362 -60 -546 -167 -597 -602 -951 -1250
-1019 -171 -18 -340 4 -437 57 -86 47 -153 136 -179 237 -6 25 -13 46 -16 46
-2 0 -35 -26 -71 -57 -83 -70 -229 -167 -302 -200 -134 -60 -267 -85 -449 -85
-258 -1 -444 71 -624 241 -353 333 -420 997 -156 1551 168 353 443 598 779
695 207 59 508 59 687 -1 140 -47 264 -147 333 -268 22 -40 35 -54 40 -45 4 8
17 74 30 147 l23 132 305 0 304 0 -5 -22 c-10 -39 -248 -1307 -268 -1428 -11
-63 -20 -158 -21 -210 -3 -157 40 -211 167 -211 282 0 486 267 545 714 14 113
12 395 -5 512 -81 572 -395 980 -903 1175 -340 132 -799 168 -1172 94 -682
-136 -1197 -660 -1339 -1361 -49 -241 -53 -559 -11 -803 80 -458 327 -850 693
-1098 314 -213 657 -319 1092 -338 441 -19 860 91 1196 315 l107 71 352 -2
353 -3 -63 -80 c-377 -473 -910 -767 -1575 -867 -136 -20 -567 -17 -720 5
-832 123 -1519 596 -1869 1287 -118 232 -192 466 -233 730 -22 143 -25 538 -5
675 65 450 231 837 507 1181 372 463 944 788 1545 878 163 24 160 24 435 21
212 -2 282 -6 378 -24z"/>
<path d="M3473 4315 c-179 -39 -322 -164 -418 -366 -64 -136 -79 -211 -79
-414 0 -148 3 -192 18 -245 38 -130 88 -208 170 -265 70 -48 139 -65 261 -65
206 -1 333 48 460 175 110 110 162 224 191 418 19 130 14 307 -11 402 -24 90
-78 198 -125 249 -99 107 -284 151 -467 111z"/>
</g>
</svg>
