<?xml version="1.0" standalone="no"?>
<!DOCTYPE svg PUBLIC "-//W3C//DTD SVG 20010904//EN"
 "http://www.w3.org/TR/2001/REC-SVG-20010904/DTD/svg10.dtd">
<svg version="1.0" xmlns="http://www.w3.org/2000/svg"
 width="897.000000pt" height="741.000000pt" viewBox="0 0 897.000000 741.000000"
 preserveAspectRatio="xMidYMid meet">
<metadata>
Created by potrace 1.13, written by Peter Selinger 2001-2015
</metadata>
<g transform="translate(0.000000,741.000000) scale(0.100000,-0.100000)"
fill="#FFFFFF" stroke="none">
<path d="M2847 7304 c-1 -1 -36 -4 -77 -8 -240 -19 -507 -149 -705 -341 -75
-73 -166 -186 -205 -254 l-35 -60 -100 -2 c-260 -3 -422 -38 -609 -133 -331
-168 -546 -437 -654 -816 -25 -89 -27 -108 -27 -300 0 -217 0 -218 59 -402 14
-43 46 -120 72 -172 l47 -95 -70 -88 c-130 -165 -196 -272 -279 -448 -86 -184
-161 -454 -179 -645 -7 -80 -7 -332 0 -420 30 -345 178 -725 399 -1020 277
-370 640 -617 1118 -760 l77 -23 6 -66 c30 -326 148 -584 368 -803 236 -235
515 -355 847 -363 179 -4 321 18 479 76 273 100 524 324 660 589 86 167 127
304 135 445 7 118 8 4772 1 4895 -11 208 -16 246 -51 350 -56 167 -123 290
-227 415 -185 222 -441 376 -714 430 -59 11 -326 26 -336 19z"/>
<path d="M5870 7303 c-404 -34 -800 -305 -986 -676 -42 -82 -97 -230 -107
-287 -3 -14 -8 -36 -11 -50 -3 -14 -8 -54 -10 -90 -7 -92 -7 -4919 0 -5010 6
-86 32 -196 69 -294 154 -410 505 -709 929 -792 113 -22 330 -26 438 -8 349
57 655 255 854 556 l66 98 72 1 c71 1 88 2 226 13 89 7 98 9 198 36 99 26 298
125 385 191 196 148 348 350 433 576 61 164 73 241 70 453 -2 102 -6 197 -10
211 -26 111 -65 221 -113 321 l-56 117 39 48 c21 26 41 50 44 53 3 3 24 30 47
60 141 186 278 473 343 717 70 259 83 590 34 872 -67 391 -258 767 -539 1062
-244 256 -521 428 -870 540 -88 29 -161 53 -162 53 -1 1 -4 33 -7 71 -10 151
-64 342 -135 482 -116 231 -325 436 -566 556 -82 40 -232 90 -325 107 -62 11
-275 19 -350 13z"/>
</g>
</svg>
