<?xml version="1.0" standalone="no"?>
<!DOCTYPE svg PUBLIC "-//W3C//DTD SVG 20010904//EN"
 "http://www.w3.org/TR/2001/REC-SVG-20010904/DTD/svg10.dtd">
<svg version="1.0" xmlns="http://www.w3.org/2000/svg"
 width="721.000000pt" height="721.000000pt" viewBox="0 0 721.000000 721.000000"
 preserveAspectRatio="xMidYMid meet">
<metadata>
Created by potrace 1.13, written by Peter Selinger 2001-2015
</metadata>
<g transform="translate(0.000000,721.000000) scale(0.100000,-0.100000)"
fill="#FFFFFF" stroke="none">
<path d="M0 3605 l0 -3605 3605 0 3605 0 0 3605 0 3605 -3605 0 -3605 0 0
-3605z m5130 2479 c226 -42 449 -154 617 -309 l72 -66 84 20 c198 47 469 151
626 240 46 26 71 35 71 27 0 -22 -57 -149 -97 -218 -89 -154 -229 -309 -355
-395 -100 -68 -100 -68 88 -32 147 29 267 62 405 114 67 25 123 44 125 42 2
-2 -34 -52 -79 -113 -95 -127 -313 -349 -441 -452 l-89 -71 -3 -193 c-10 -769
-273 -1530 -743 -2153 -478 -634 -1131 -1068 -1895 -1260 -922 -232 -1904 -99
-2703 367 -57 33 -105 63 -108 68 -2 4 86 5 198 2 544 -13 1022 124 1469 420
82 55 148 102 145 104 -3 3 -47 9 -98 15 -409 42 -786 298 -973 659 -42 81
-88 191 -83 196 1 2 36 -2 77 -8 120 -17 374 -1 450 28 8 3 -29 20 -85 38
-213 68 -383 174 -534 332 -189 197 -294 412 -336 684 -15 95 -20 190 -10 190
3 0 36 -15 73 -34 115 -58 345 -117 446 -115 l31 0 -35 27 c-74 58 -205 191
-260 264 -110 146 -185 314 -227 508 -25 117 -24 362 1 480 29 136 123 380
147 380 4 0 19 -17 35 -37 49 -65 294 -312 400 -403 234 -202 463 -354 744
-493 406 -201 800 -312 1273 -358 65 -6 120 -9 123 -7 2 3 -1 29 -8 59 -20 86
-17 377 5 471 45 192 93 306 189 449 202 303 530 503 898 548 95 12 265 5 370
-15z"/>
</g>
</svg>
